<?xml version="1.0" encoding="utf-8"?>
<!DOCTYPE svg PUBLIC "-//W3C//DTD SVG 1.1//EN" "http://www.w3.org/Graphics/SVG/1.1/DTD/svg11.dtd">
<svg version="1.1" id="Layer_1" xmlns="http://www.w3.org/2000/svg" xmlns:xlink="http://www.w3.org/1999/xlink" x="0px" y="0px"
	 width="283.46px" height="283.46px" viewBox="0 0 283.46 283.46" enable-background="new 0 0 283.46 283.46" xml:space="preserve">
<g>
	<g id="XMLID_1_">
		<g>
			<path fill="#FFFFFF" d="M161.09,140.77c1.09,2.12,2.3,4.19,3.22,6.39c1.29,3.09,3.37,4.39,6.78,4.28
				c5.93-0.2,11.87-0.061,17.8-0.051c0.94,0,1.87,0,3.62,0c-1.09,1.29-1.609,2.04-2.26,2.66c-15.19,14.65-30.39,29.29-45.61,43.91
				c-3.06,2.93-5.56,2.99-8.649,0.03c-15.57-14.96-31.09-29.971-46.62-44.971c-0.26-0.25-0.4-0.63-0.88-1.409
				c1.31-0.091,2.29-0.21,3.28-0.221c7.68-0.01,15.36,0.011,23.05-0.01c3.71-0.01,5.04-1.03,5.97-4.62
				c1.54-5.9,3.02-11.83,4.54-17.74c0.13-0.53,0.35-1.04,1.17-1.71c0.35,1,0.74,1.98,1.03,2.99c4.28,14.99,8.56,29.99,12.82,44.99
				c0.7,2.47,1.62,4.69,4.69,4.72c3.09,0.03,4.04-2.26,4.78-4.66c3.319-10.939,6.62-21.89,9.939-32.83
				c0.16-0.53,0.38-1.04,0.57-1.56C160.59,140.9,160.84,140.83,161.09,140.77z"/>
			<path fill="#FFFFFF" d="M146.75,155.06c-0.33,1.091-0.76,2.141-1.15,3.21c-0.26,0.021-0.529,0.051-0.79,0.07
				c-1.8-6.21-3.609-12.42-5.379-18.64c-2.96-10.35-5.87-20.7-8.84-31.04c-1.27-4.45-5.08-6.1-7.68-3.26c-0.91,1-1.4,2.53-1.76,3.9
				c-2.58,10.04-5.15,20.09-7.54,30.17c-0.55,2.35-1.51,3.11-3.91,3.07c-8.85-0.14-17.71,0-26.56-0.12
				c-1.17-0.02-2.85-0.56-3.42-1.44c-8.35-12.79-9.67-26.32-2.82-40.05c5.56-11.16,15.66-15.59,27.58-16.71
				c13.33-1.25,23.56,5.03,33,13.34c0.86,0.77,1.7,1.55,2.56,2.33c4.06-3.11,7.87-6.26,11.91-9.08
				c10.859-7.59,22.71-8.54,34.96-4.29c12.09,4.21,18.479,13.31,20.58,25.67c1.72,10.15-0.7,19.43-6.01,28.11
				c-0.971,1.58-2.061,2.26-3.98,2.23c-7.68-0.11-15.37-0.12-23.05,0c-1.98,0.03-2.96-0.71-3.771-2.41
				c-2.17-4.56-4.51-9.03-6.76-13.54c-0.97-1.96-2.36-3.48-4.689-3.29c-2.44,0.2-3.591,1.94-4.25,4.19
				C152.28,136.68,149.51,145.87,146.75,155.06z"/>
			<path fill="#6A5196" d="M256.26,7.66c6.69,0.09,10.101,4.54,10.03,10.38c-0.17,13.62-0.03,27.25-0.06,40.88
				c-0.011,4.42-1.141,5.52-5.5,5.57c-2.631,0.03-5.261,0.05-7.891-0.02c-3.41-0.08-4.92-1.59-4.96-5.06
				c-0.06-5.26-0.01-10.51-0.02-15.77c0-1.04,0-2.09,0-3.97c-1.351,1.15-2.16,1.73-2.86,2.43c-11.35,11.36-22.65,22.77-34.06,34.08
				c-1.641,1.63-1.801,2.76-0.351,4.62c8.59,11.01,14.21,23.5,16.16,37.27c3.58,25.3-1.62,48.46-18.21,68.53
				c-12.22,14.78-27.39,24.86-46.16,29.29c-2.82,0.66-5.71,1.04-8.57,1.54c-1.35,0.23-2.76,0.271-2.75,2.25
				c0.04,6.021,0.011,12.04,0.011,18.601c2.01,0,3.81,0,5.609,0c2.62,0,5.25-0.08,7.88,0.02c4.091,0.16,5.721,1.91,5.771,6.061
				c0.02,2.14,0.02,4.279,0,6.42c-0.04,4.479-1.65,6.189-6.14,6.279c-4.25,0.091-8.5,0.021-13.131,0.021c0,3.95,0,7.52,0,11.09
				c0,7.12-0.64,7.75-7.85,7.75c-2.05-0.01-4.09,0.04-6.13-0.04c-2.95-0.12-4.25-1.36-4.33-4.33c-0.12-3.979-0.11-7.979-0.06-11.97
				c0.03-1.86-0.66-2.59-2.58-2.53c-3.5,0.12-7.01,0.09-10.51,0.021c-4.67-0.101-6.08-1.57-6.09-6.141c-0.01-2.239-0.01-4.47,0-6.71
				c0.01-4.41,1.45-5.859,5.97-5.93c3.5-0.05,7.01-0.11,10.51,0.03c2.07,0.08,2.74-0.73,2.71-2.71c-0.08-5.061-0.07-10.12,0-15.181
				c0.03-1.949-0.82-2.779-2.7-3.01c-14.49-1.77-27.64-6.96-39.25-15.8c-17.94-13.67-29.91-31.36-33.71-53.75
				c-4.17-24.47,0.81-47.09,15.99-67.1c1.28-1.68,1.48-2.83-0.23-4.36c-2.16-1.93-4.05-4.16-6.31-6.53
				c-3.28,3.55-6.3,6.81-9.3,10.07c-1.78,1.94-3.51,3.92-5.31,5.83c-3.13,3.31-4.91,3.38-8.4,0.32c-1.75-1.54-3.46-3.13-5.15-4.76
				c-2.68-2.59-2.84-4.8-0.38-7.57c4.4-4.94,8.81-9.88,13.37-14.67c1.59-1.66,1.53-2.67-0.08-4.24c-4.27-4.13-8.36-8.43-12.54-12.65
				c-0.72-0.73-1.51-1.38-2.83-2.57c-0.15,1.75-0.3,2.75-0.31,3.76c-0.02,5.15,0.02,10.31-0.02,15.47
				c-0.03,4.58-1.07,5.58-5.73,5.62c-2.34,0.03-4.68,0.03-7.01,0c-4.16-0.06-5.6-1.47-5.61-5.62c-0.04-7.69-0.02-15.38-0.02-23.07
				c0-5.93-0.01-11.87,0.01-17.81c0.02-6,3.89-10.29,9.87-10.35C40.87,7.5,54.7,7.54,68.52,7.63c4.08,0.02,5.46,1.65,5.48,5.81
				c0.01,2.24,0,4.48,0,6.72c-0.01,4.71-1.47,6.19-6.29,6.23c-4.96,0.04-9.92,0-14.89,0.01c-0.92,0.01-1.85,0.1-2.71,0.14
				c5.45,5.27,10.78,10.41,16.33,15.78c1.82-1.97,4.25-4.58,6.67-7.19c1.92-2.07,3.8-4.18,5.77-6.2c1.94-1.99,4.17-2.1,6.27-0.36
				c2.46,2.05,4.86,4.21,7.1,6.49c2.12,2.16,2.04,4.07-0.24,6.68c-3.66,4.17-7.38,8.29-11.2,12.3c-1.61,1.68-1.87,2.88,0.08,4.47
				c1.81,1.47,3.46,3.16,4.99,4.92c1.4,1.61,2.49,1.52,4.13,0.25c9.21-7.07,19.39-12.28,30.73-14.87
				c25.88-5.91,49.89-1.78,71.59,13.95c3.41,2.47,3.39,2.49,6.34-0.43c10.97-10.91,21.95-21.82,32.92-32.73
				c0.8-0.8,1.561-1.65,2.75-2.91c-1.37-0.13-2.18-0.28-2.979-0.28c-5.261-0.02-10.521,0.04-15.771-0.03
				c-4.47-0.06-6.17-1.81-6.25-6.23c-0.04-2.14-0.03-4.28,0-6.43c0.07-4.18,1.641-6.05,5.74-6.08
				C228.81,7.53,242.53,7.46,256.26,7.66z M201.48,140.3c5.31-8.68,7.729-17.96,6.01-28.11c-2.101-12.36-8.49-21.46-20.58-25.67
				c-12.25-4.25-24.101-3.3-34.96,4.29c-4.04,2.82-7.851,5.97-11.91,9.08c-0.86-0.78-1.7-1.56-2.56-2.33
				c-9.44-8.31-19.67-14.59-33-13.34c-11.92,1.12-22.02,5.55-27.58,16.71c-6.85,13.73-5.53,27.26,2.82,40.05
				c0.57,0.88,2.25,1.42,3.42,1.44c8.85,0.12,17.71-0.02,26.56,0.12c2.4,0.04,3.36-0.72,3.91-3.07c2.39-10.08,4.96-20.13,7.54-30.17
				c0.36-1.37,0.85-2.9,1.76-3.9c2.6-2.84,6.41-1.19,7.68,3.26c2.97,10.34,5.88,20.69,8.84,31.04c1.77,6.22,3.58,12.43,5.379,18.64
				c0.261-0.02,0.53-0.05,0.79-0.07c0.391-1.069,0.82-2.119,1.15-3.21c2.76-9.189,5.53-18.379,8.23-27.58
				c0.659-2.25,1.81-3.99,4.25-4.19c2.329-0.19,3.72,1.33,4.689,3.29c2.25,4.51,4.59,8.98,6.76,13.54
				c0.811,1.7,1.79,2.44,3.771,2.41c7.68-0.12,15.37-0.11,23.05,0C199.42,142.56,200.51,141.88,201.48,140.3z M192.51,151.39
				c-1.75,0-2.68,0-3.62,0c-5.93-0.01-11.87-0.149-17.8,0.051c-3.41,0.109-5.49-1.19-6.78-4.28c-0.92-2.2-2.13-4.27-3.22-6.39
				c-0.25,0.06-0.5,0.13-0.76,0.19c-0.19,0.52-0.41,1.03-0.57,1.56c-3.319,10.94-6.62,21.89-9.939,32.83
				c-0.74,2.4-1.69,4.69-4.78,4.66c-3.07-0.029-3.99-2.25-4.69-4.72c-4.26-15-8.54-30-12.82-44.99c-0.29-1.01-0.68-1.99-1.03-2.99
				c-0.82,0.67-1.04,1.18-1.17,1.71c-1.52,5.91-3,11.84-4.54,17.74c-0.93,3.59-2.26,4.61-5.97,4.62c-7.69,0.021-15.37,0-23.05,0.01
				c-0.99,0.011-1.97,0.13-3.28,0.221c0.48,0.779,0.62,1.159,0.88,1.409c15.53,15,31.05,30.011,46.62,44.971
				c3.09,2.96,5.59,2.899,8.649-0.03c15.221-14.62,30.42-29.26,45.61-43.91C190.9,153.43,191.42,152.68,192.51,151.39z"/>
		</g>
	</g>
</g>
</svg>
